<svg id="visual" viewBox="0 0 900 600" width="900" height="600" xmlns="http://www.w3.org/2000/svg" xmlns:xlink="http://www.w3.org/1999/xlink" version="1.1"><path d="M0 133L82 145L164 103L245 283L327 217L409 145L491 175L573 133L655 97L736 253L818 181L900 187L900 0L818 0L736 0L655 0L573 0L491 0L409 0L327 0L245 0L164 0L82 0L0 0Z" fill="#6600ff"></path><path d="M0 205L82 235L164 229L245 343L327 301L409 193L491 211L573 253L655 181L736 295L818 247L900 271L900 185L818 179L736 251L655 95L573 131L491 173L409 143L327 215L245 281L164 101L82 143L0 131Z" fill="#672bfd"></path><path d="M0 373L82 487L164 415L245 499L327 403L409 421L491 385L573 421L655 415L736 385L818 409L900 433L900 269L818 245L736 293L655 179L573 251L491 209L409 191L327 299L245 341L164 227L82 233L0 203Z" fill="#6940fa"></path><path d="M0 511L82 541L164 565L245 559L327 499L409 499L491 499L573 541L655 559L736 541L818 529L900 565L900 431L818 407L736 383L655 413L573 419L491 383L409 419L327 401L245 497L164 413L82 485L0 371Z" fill="#6c50f6"></path><path d="M0 601L82 601L164 601L245 601L327 601L409 601L491 601L573 601L655 601L736 601L818 601L900 601L900 563L818 527L736 539L655 557L573 539L491 497L409 497L327 497L245 557L164 563L82 539L0 509Z" fill="#715df2"></path></svg>